<svg xmlns="http://www.w3.org/2000/svg" width="40" height="40" viewBox="0 0 40 40"><path d="M19.71 4.41A15.75 15.75 0 0 0 3.96 20.16a15.8 15.8 0 0 0 10.77 14.97c.79.11 1.04-.36 1.04-.8v-2.66c-4.36.95-5.3-2.1-5.3-2.1-.71-1.83-1.74-2.33-1.74-2.33-1.43-.97.1-.94.1-.94 1.58.11 2.42 1.62 2.42 1.62 1.37 2.4 3.69 1.69 4.59 1.31.14-1.02.54-1.7.99-2.11-3.5-.39-7.17-1.75-7.17-7.74 0-1.76.6-3.15 1.62-4.28a5.63 5.63 0 0 1 .16-4.16s1.32-.42 4.33 1.61a14.84 14.84 0 0 1 7.87 0c3.02-2.03 4.34-1.6 4.34-1.6.87 2.12.32 3.76.15 4.15a6.1 6.1 0 0 1 1.62 4.27c0 6.02-3.68 7.34-7.2 7.74.58.48 1.1 1.44 1.1 2.91v4.31c0 .43.25.93 1.06.8a15.8 15.8 0 0 0 10.75-14.97A15.75 15.75 0 0 0 19.71 4.41z"/></svg>